<?xml version="1.0" encoding="iso-8859-1"?>
<!-- Generator: Adobe Illustrator 21.0.0, SVG Export Plug-In . SVG Version: 6.00 Build 0)  -->
<svg xmlns="http://www.w3.org/2000/svg" xmlns:xlink="http://www.w3.org/1999/xlink" version="1.1" id="Capa_1" x="0px" y="0px" viewBox="0 0 512 512" style="enable-background:new 0 0 512 512;" xml:space="preserve" width="512" height="512">
<g>
	<g>
		<g>
			<g>
				<g>
					<g>
						<g>
							<g>
								<g>
									<g>
										<g>
											<g>
												<g>
													<g>
														<g>
															<g>
																<g>
																	<g>
																		<g>
																			<g>
																				<circle style="fill:#FFDE55;" cx="256" cy="256" r="256"/>
																			</g>
																		</g>
																	</g>
																</g>
															</g>
														</g>
													</g>
												</g>
											</g>
										</g>
									</g>
								</g>
							</g>
						</g>
					</g>
				</g>
			</g>
		</g>
	</g>
	<path style="fill:#FF9811;" d="M499.191,336.131c-57.854-57.856-162.198-162.201-162.442-162.441   c-4.102-4.39-9.955-8.147-17.018-11.267l-55-55.423l-17.461,44.412c-3.006,0.121-5.997,0.312-8.965,0.557l-44-44.969   c-22.103,0-44.341,3.376-60.844,9.969l-9-9.969L107,153.563l61.695,61v32.707L107,264.73l62,62l7.252,12.58l159.88,159.88   C413.056,473.858,473.858,413.056,499.191,336.131z"/>
	<g>
		<rect x="107" y="247.27" style="fill:#A3B1C4;" width="70.426" height="17.461"/>
		<rect x="334.574" y="247.27" style="fill:#8799B3;" width="70.426" height="17.461"/>
		<rect x="247.27" y="352.035" style="fill:#A3B1C4;" width="17.461" height="52.965"/>
		<rect x="256" y="352.035" style="fill:#8799B3;" width="8.73" height="52.965"/>
		<path style="fill:#E4187A;" d="M256,360.766c-43.385,0-87.305-12.995-87.305-37.832V189.648h174.609v133.285    C343.305,347.771,299.385,360.766,256,360.766z"/>
		<path style="fill:#880E48;" d="M256,189.648v171.117c43.385,0,87.305-12.995,87.305-37.832V189.648H256z"/>
		<path style="fill:#FF728B;" d="M256,226.898c-43.385,0-87.305-12.995-87.305-37.832s43.92-37.832,87.305-37.832    s87.305,12.995,87.305,37.832S299.385,226.898,256,226.898z"/>
		<g>
			<path style="fill:#F7AFD1;" d="M228.12,286.905l2.318,17.306c5.468-0.732,11.185-1.227,16.994-1.47l-0.731-17.446     C240.364,285.561,234.113,286.102,228.12,286.905z"/>
			<path style="fill:#F7AFD1;" d="M191.227,296.714l7.273,15.874c4.363-1.999,9.538-3.762,15.382-5.24l-4.281-16.928     C202.733,292.158,196.551,294.275,191.227,296.714z"/>
			<path style="fill:#F072AE;" d="M264.557,302.74c5.808,0.243,11.526,0.737,16.995,1.469l2.317-17.306     c-5.993-0.802-12.245-1.343-18.582-1.609L264.557,302.74z"/>
			<path style="fill:#F072AE;" d="M302.388,290.418l-4.28,16.928c5.845,1.478,11.021,3.24,15.383,5.239l7.271-15.875     C315.44,294.272,309.258,292.155,302.388,290.418z"/>
		</g>
		<g>
			<path style="fill:#243145;" d="M317.695,405v-17.461c19.979,0,38.634-2.834,52.528-7.98c12.704-4.705,17.316-9.988,17.316-12.391     H405C405,392.005,361.08,405,317.695,405z"/>
			<polygon style="fill:#121924;" points="405,405 387.539,405 387.539,375.898 358.438,375.898 358.438,358.438 405,358.438    "/>
		</g>
		<g>
			<path style="fill:#466288;" d="M124.461,144.832H107C107,119.995,150.92,107,194.305,107v17.461     c-19.979,0-38.634,2.834-52.528,7.98C129.072,137.146,124.461,142.429,124.461,144.832z"/>
			<polygon style="fill:#243145;" points="153.563,153.563 107,153.563 107,107 124.461,107 124.461,136.102 153.563,136.102    "/>
		</g>
		<path style="fill:#EA348B;" d="M256,151.234v75.664c43.385,0,87.305-12.995,87.305-37.832S299.385,151.234,256,151.234z"/>
		<rect x="247.27" y="107" style="fill:#A3B1C4;" width="17.461" height="82.066"/>
		<rect x="256" y="107" style="fill:#8799B3;" width="8.73" height="82.066"/>
	</g>
</g>















</svg>
