<svg id="flat" height="512" viewBox="0 0 512 512" width="512" xmlns="http://www.w3.org/2000/svg"><path d="m64 352h64v96h-64z" fill="#ffa100"/><path d="m128 288h64v160h-64z" fill="#ffb401"/><path d="m192 216h64v232h-64z" fill="#ffc431"/><path d="m24 440h272v16h-272z" fill="#ffd873"/><path d="m280 456v-.00006a242.87133 242.87133 0 0 0 32-120.49794v-103.502l32-56 112-72v231.502a242.87133 242.87133 0 0 0 32 120.49794v.00006z" fill="#ef5e3b"/><path d="m464 112-6.44 17.17-17.56 46.83-16 80h-80l-8-40-6.67 16.67-25.33 63.33-16-8 8-72 24-48 48-24 40-16 14.9-24.83 9.1-15.17v-64h24z" fill="#548aff"/><path d="m376 144h16v80h-16z" fill="#4976f2"/><path d="m344 256v112l16 48h24v72h24l16-104v-128z" fill="#486be0"/><path d="m392 408a8 8 0 0 1 -8 8h-8v-120h16z" fill="#3b57c4"/><path d="m329.33 232.67-25.33 63.33-16-8 8-72z" fill="#ffceb6"/><path d="m464 112-6.44 17.17-34.66-26 9.1-15.17v-64h24z" fill="#ffceb6"/><path d="m80 480h32v16h-32z" fill="#ffd873"/><path d="m144 480h32v16h-32z" fill="#ffd873"/><path d="m208 480h32v16h-32z" fill="#ffd873"/><g fill="#ffb401"><path d="m79.716 236h56.569v16h-56.569z" transform="matrix(.707 -.707 .707 .707 -140.906 147.844)"/><path d="m151.716 164h56.569v16h-56.569z" transform="matrix(.707 -.707 .707 .707 -68.901 177.668)"/><path d="m232 128h80v16h-80z"/><path d="m16 272h40v16h-40z"/></g><path d="m408 104v24a24 24 0 0 1 -24 24 24 24 0 0 1 -24-24v-24z" fill="#ffceb6"/><path d="m360 104h48v-13.57781a18.42218 18.42218 0 0 0 -18.42219-18.42219 18.42223 18.42223 0 0 0 -10.21881 3.094l-19.359 12.906z" fill="#b1712c"/><path d="m128 192h32v32h-32z" fill="#ffb401"/><path d="m160 232h-32a8.00008 8.00008 0 0 1 -8-8v-32a8.00008 8.00008 0 0 1 8-8h32a8.00008 8.00008 0 0 1 8 8v32a8.00008 8.00008 0 0 1 -8 8zm-24-16h16v-16h-16z" fill="#ffd873"/><path d="m56 264h32v32h-32z" fill="#ffb401"/><path d="m88 304h-32a8.00008 8.00008 0 0 1 -8-8v-32a8.00008 8.00008 0 0 1 8-8h32a8.00008 8.00008 0 0 1 8 8v32a8.00008 8.00008 0 0 1 -8 8zm-24-16h16v-16h-16z" fill="#ffd873"/><path d="m200 120h32v32h-32z" fill="#ffb401"/><path d="m232 160h-32a8.00008 8.00008 0 0 1 -8-8v-32a8.00008 8.00008 0 0 1 8-8h32a8.00008 8.00008 0 0 1 8 8v32a8.00008 8.00008 0 0 1 -8 8zm-24-16h16v-16h-16z" fill="#ffd873"/></svg>